<svg width="25" height="25" viewBox="0 0 25 25" fill="none" xmlns="http://www.w3.org/2000/svg">
    <mask id="mask0_862_4943" style="mask-type:alpha" maskUnits="userSpaceOnUse" x="0" y="0" width="25" height="25">
        <rect x="0.5" y="0.5" width="24" height="24" rx="12" fill="white" stroke="#E0E0E9"/>
    </mask>
    <g mask="url(#mask0_862_4943)">
        <rect x="5" width="5" height="5" fill="#F4F4F6"/>
        <rect x="10" width="5" height="5" fill="white"/>
        <rect x="10" y="5" width="5" height="5" fill="#F4F4F6"/>
        <rect x="15" y="5" width="5" height="5" fill="white"/>
        <rect x="5" y="10" width="5" height="5" fill="#F4F4F6"/>
        <rect x="10" y="10" width="5" height="5" fill="white"/>
        <rect x="10" y="15" width="5" height="5" fill="#F4F4F6"/>
        <rect x="15" y="15" width="5" height="5" fill="white"/>
        <rect x="15" width="5" height="5" fill="#F4F4F6"/>
        <rect x="20" width="5" height="5" fill="white"/>
        <rect x="20" y="5" width="5" height="5" fill="#F4F4F6"/>
        <rect x="15" y="10" width="5" height="5" fill="#F4F4F6"/>
        <rect x="20" y="10" width="5" height="5" fill="white"/>
        <rect x="20" y="15" width="5" height="5" fill="#F4F4F6"/>
        <rect width="5" height="5" fill="white"/>
        <rect y="5" width="5" height="5" fill="#F4F4F6"/>
        <rect y="10" width="5" height="5" fill="white"/>
        <rect x="5" y="20" width="5" height="5" fill="#F4F4F6"/>
        <rect x="10" y="20" width="5" height="5" fill="white"/>
        <rect x="15" y="20" width="5" height="5" fill="#F4F4F6"/>
        <rect x="20" y="20" width="5" height="5" fill="white"/>
        <rect y="20" width="5" height="5" fill="white"/>
        <rect x="5" y="15" width="5" height="5" fill="white"/>
        <rect y="15" width="5" height="5" fill="#F4F4F6"/>
        <rect x="5" y="5" width="5" height="5" fill="white"/>
        <rect x="0.5" y="0.5" width="24" height="24" rx="12" stroke="#E0E0E9"/>
    </g>
</svg>
