<svg width="20" height="20" viewBox="0 0 20 20" fill="none" xmlns="http://www.w3.org/2000/svg">
    <path d="M11.2891 14.5625H11.9922C12.168 14.5625 12.3438 14.416 12.3438 14.2109V7.88281C12.3438 7.70703 12.168 7.53125 11.9922 7.53125H11.2891C11.084 7.53125 10.9375 7.70703 10.9375 7.88281V14.2109C10.9375 14.416 11.084 14.5625 11.2891 14.5625ZM16.0938 4.71875H13.6621L12.666 3.07812C12.4316 2.66797 11.9629 2.375 11.4648 2.375H8.50586C8.00781 2.375 7.53906 2.66797 7.30469 3.07812L6.30859 4.71875H3.90625C3.64258 4.71875 3.4375 4.95312 3.4375 5.1875V5.65625C3.4375 5.91992 3.64258 6.125 3.90625 6.125H4.375V15.9688C4.375 16.7598 4.99023 17.375 5.78125 17.375H14.2188C14.9805 17.375 15.625 16.7598 15.625 15.9688V6.125H16.0938C16.3281 6.125 16.5625 5.91992 16.5625 5.65625V5.1875C16.5625 4.95312 16.3281 4.71875 16.0938 4.71875ZM8.44727 3.86914C8.47656 3.83984 8.53516 3.78125 8.59375 3.78125C8.59375 3.78125 8.59375 3.78125 8.62305 3.78125H11.377C11.4355 3.78125 11.4941 3.83984 11.5234 3.86914L12.0215 4.71875H7.94922L8.44727 3.86914ZM14.2188 15.9688H5.78125V6.125H14.2188V15.9688ZM8.00781 14.5625H8.71094C8.88672 14.5625 9.0625 14.416 9.0625 14.2109V7.88281C9.0625 7.70703 8.88672 7.53125 8.71094 7.53125H8.00781C7.80273 7.53125 7.65625 7.70703 7.65625 7.88281V14.2109C7.65625 14.416 7.80273 14.5625 8.00781 14.5625Z" fill="currentColor"/>
    <path fill-rule="evenodd" clip-rule="evenodd" d="M7.26156 3.05275C7.50448 2.62813 7.98914 2.32501 8.50581 2.32501H11.4648C11.9815 2.32501 12.4661 2.62814 12.7091 3.05276L13.6902 4.66876H16.0937C16.2271 4.66876 16.3564 4.73498 16.4513 4.82989C16.5462 4.9248 16.6125 5.05406 16.6125 5.18751V5.65626C16.6125 5.94953 16.3537 6.17501 16.0937 6.17501H15.675V15.9688C15.675 16.7881 15.0074 17.425 14.2187 17.425H5.7812C4.96257 17.425 4.32495 16.7874 4.32495 15.9688V6.17501H3.9062C3.61492 6.17501 3.38745 5.94755 3.38745 5.65626V5.18751C3.38745 4.92755 3.61293 4.66876 3.9062 4.66876H6.28041L7.26156 3.05275ZM8.50581 2.42501C8.02662 2.42501 7.57399 2.70755 7.34805 3.10294L7.34739 3.1041L6.33668 4.76876H3.9062C3.67213 4.76876 3.48745 4.97872 3.48745 5.18751V5.65626C3.48745 5.89232 3.67014 6.07501 3.9062 6.07501H4.42495V15.9688C4.42495 16.7322 5.0178 17.325 5.7812 17.325H14.2187C14.9535 17.325 15.575 16.7315 15.575 15.9688V6.07501H16.0937C16.3025 6.07501 16.5125 5.89034 16.5125 5.65626V5.18751C16.5125 5.08659 16.4615 4.98148 16.3806 4.9006C16.2997 4.81973 16.1946 4.76876 16.0937 4.76876H13.6339L12.6225 3.10295C12.3966 2.70756 11.944 2.42501 11.4648 2.42501H8.50581ZM8.48709 3.9L8.03644 4.66876H11.9342L11.4835 3.9C11.4694 3.88591 11.4517 3.86896 11.4321 3.85491C11.4093 3.83864 11.3905 3.83126 11.3769 3.83126H8.59458C8.58096 3.83126 8.56131 3.83864 8.53853 3.85491C8.51886 3.86896 8.50125 3.88591 8.48709 3.9ZM8.48041 3.77353C8.50891 3.75318 8.54873 3.73126 8.5937 3.73126H11.3769C11.4219 3.73126 11.4617 3.75318 11.4902 3.77353C11.5192 3.79426 11.5436 3.81864 11.5581 3.83317L11.568 3.84302L11.5665 3.84387L12.1087 4.76876H7.8619L8.41068 3.83261L8.41186 3.8338C8.42639 3.81927 8.45139 3.79426 8.48041 3.77353ZM5.7312 6.07501H14.2687V16.0188H5.7312V6.07501ZM5.8312 6.17501V15.9188H14.1687V6.17501H5.8312ZM7.6062 7.88282C7.6062 7.68216 7.77242 7.48126 8.00776 7.48126H8.71089C8.81504 7.48126 8.91501 7.53284 8.98794 7.60577C9.06088 7.67871 9.11245 7.77867 9.11245 7.88282V14.2109C9.11245 14.4463 8.91155 14.6125 8.71089 14.6125H8.00776C7.77507 14.6125 7.6062 14.4436 7.6062 14.2109V7.88282ZM8.00776 7.58126C7.83295 7.58126 7.7062 7.73193 7.7062 7.88282V14.2109C7.7062 14.3884 7.8303 14.5125 8.00776 14.5125H8.71089C8.86179 14.5125 9.01245 14.3858 9.01245 14.2109V7.88282C9.01245 7.8112 8.97613 7.73538 8.91723 7.67648C8.85833 7.61758 8.78252 7.58126 8.71089 7.58126H8.00776ZM10.8875 7.88282C10.8875 7.68216 11.0537 7.48126 11.289 7.48126H11.9921C12.0963 7.48126 12.1963 7.53284 12.2692 7.60577C12.3421 7.67871 12.3937 7.77867 12.3937 7.88282V14.2109C12.3937 14.4463 12.1928 14.6125 11.9921 14.6125H11.289C11.0563 14.6125 10.8875 14.4436 10.8875 14.2109V7.88282ZM11.289 7.58126C11.1142 7.58126 10.9875 7.73193 10.9875 7.88282V14.2109C10.9875 14.3884 11.1116 14.5125 11.289 14.5125H11.9921C12.143 14.5125 12.2937 14.3858 12.2937 14.2109V7.88282C12.2937 7.8112 12.2574 7.73538 12.1985 7.67648C12.1396 7.61758 12.0638 7.58126 11.9921 7.58126H11.289Z" fill="currentColor"/>
</svg>
