<svg width="20" height="20" viewBox="0 0 20 20" fill="none" xmlns="http://www.w3.org/2000/svg">
    <path fill-rule="evenodd" clip-rule="evenodd" d="M3.80846 2C3.36332 2 3 2.36332 3 2.80846C3 3.2536 3.36332 3.61692 3.80846 3.61692H4.93747V5.71043C4.93747 7.50899 5.8729 9.09225 7.28538 10.0002C5.87645 10.9082 4.93747 12.4914 4.93747 14.2937V16.3831H3.80846C3.36332 16.3831 3 16.7464 3 17.1915C3 17.6367 3.36332 18 3.80846 18H16.1398C16.585 18 16.9483 17.6367 16.9483 17.1915C16.9483 16.7464 16.5849 16.3831 16.1397 16.3831H15.1418V14.2896C15.1418 12.4912 14.2066 10.908 12.7943 10C14.2065 9.09194 15.1418 7.50879 15.1418 5.71043V3.61692H16.1439C16.5891 3.61692 16.9524 3.2536 16.9524 2.80846C16.9524 2.36332 16.5891 2 16.1439 2H3.80846ZM6.55435 5.71064V3.61714H13.525V5.71064C13.525 7.63007 11.9637 9.19163 10.0397 9.19163C8.11974 9.19163 6.55435 7.62984 6.55435 5.71064ZM6.55435 14.2896C6.55435 12.3703 8.11548 10.8086 10.0438 10.8086C11.9634 10.8086 13.5248 12.3701 13.5248 14.2896L13.525 16.3831H6.55435V14.2896Z" fill="currentColor"/>
</svg>
