<svg width="20" height="20" viewBox="0 0 20 20" fill="none" xmlns="http://www.w3.org/2000/svg">
    <path fill-rule="evenodd" clip-rule="evenodd" d="M10 10.8276C10.5523 10.8276 11 11.2753 11 11.8276V13.4827C11 14.035 10.5523 14.4827 10 14.4827C9.44772 14.4827 9 14.035 9 13.4827V11.8276C9 11.2753 9.44772 10.8276 10 10.8276Z" fill="currentColor"/>
    <path d="M9.99946 9.34462C10.4565 9.34462 10.827 8.9741 10.827 8.51704C10.827 8.05998 10.4565 7.68945 9.99946 7.68945C9.5424 7.68945 9.17188 8.05998 9.17188 8.51704C9.17188 8.9741 9.5424 9.34462 9.99946 9.34462Z" fill="currentColor" stroke="currentColor" stroke-width="0.4"/>
    <path fill-rule="evenodd" clip-rule="evenodd" d="M10 5.75C7.10051 5.75 4.75 8.10051 4.75 11C4.75 13.8995 7.10051 16.25 10 16.25C12.8995 16.25 15.25 13.8995 15.25 11C15.25 8.10051 12.8995 5.75 10 5.75ZM3.25 11C3.25 7.27208 6.27208 4.25 10 4.25C13.7279 4.25 16.75 7.27208 16.75 11C16.75 14.7279 13.7279 17.75 10 17.75C6.27208 17.75 3.25 14.7279 3.25 11Z" fill="currentColor" stroke="currentColor" stroke-width="0.1" stroke-linecap="round" stroke-linejoin="round"/>
</svg>
