<svg width="20" height="20" viewBox="0 0 20 20" fill="none" xmlns="http://www.w3.org/2000/svg">
    <path d="M17.6562 7.84375L12.4062 2.59375C12.375 2.53125 12.3125 2.5 12.25 2.5C12.1875 2.5 12.125 2.53125 12.0625 2.59375L11.375 3.28125C11.2812 3.375 11.2812 3.53125 11.375 3.625L11.7188 3.96875L3.6875 12.0312C2.4375 13.2812 2.4375 15.3125 3.6875 16.5625C4.9375 17.8125 6.96875 17.8125 8.21875 16.5625L16.2812 8.53125L16.625 8.875C16.6562 8.9375 16.7188 8.9375 16.7812 8.9375C16.8438 8.9375 16.9062 8.9375 16.9688 8.875L17.6562 8.1875C17.75 8.09375 17.75 7.9375 17.6562 7.84375ZM7.15625 15.5C6.5 16.1875 5.40625 16.1875 4.75 15.5C4.0625 14.8438 4.0625 13.75 4.75 13.0938L6.3125 11.5H11.1562L7.15625 15.5ZM12.6562 10H7.8125L12.7812 5.0625L15.1875 7.46875L12.6562 10Z" fill="currentColor" stroke="currentColor" stroke-width="0.2"/>
</svg>
