<svg width="295" height="20" viewBox="0 0 295 20" fill="none" xmlns="http://www.w3.org/2000/svg">
<rect x="5" width="5" height="5" fill="#F4F4F6"/>
<rect x="10" width="5" height="5" fill="white"/>
<rect x="10" y="5" width="5" height="5" fill="#F4F4F6"/>
<rect x="15" y="5" width="5" height="5" fill="white"/>
<rect x="5" y="10" width="5" height="5" fill="#F4F4F6"/>
<rect x="10" y="10" width="5" height="5" fill="white"/>
<rect x="10" y="15" width="5" height="5" fill="#F4F4F6"/>
<rect x="15" y="15" width="5" height="5" fill="white"/>
<rect x="15" width="5" height="5" fill="#F4F4F6"/>
<rect x="15" y="10" width="5" height="5" fill="#F4F4F6"/>
<rect width="5" height="5" fill="white"/>
<rect y="5" width="5" height="5" fill="#F4F4F6"/>
<rect y="10" width="5" height="5" fill="white"/>
<rect x="5" y="15" width="5" height="5" fill="white"/>
<rect y="15" width="5" height="5" fill="#F4F4F6"/>
<rect x="5" y="5" width="5" height="5" fill="white"/>
<rect x="25" width="5" height="5" fill="#F4F4F6"/>
<rect x="30" width="5" height="5" fill="white"/>
<rect x="30" y="5" width="5" height="5" fill="#F4F4F6"/>
<rect x="35" y="5" width="5" height="5" fill="white"/>
<rect x="25" y="10" width="5" height="5" fill="#F4F4F6"/>
<rect x="30" y="10" width="5" height="5" fill="white"/>
<rect x="30" y="15" width="5" height="5" fill="#F4F4F6"/>
<rect x="35" y="15" width="5" height="5" fill="white"/>
<rect x="35" width="5" height="5" fill="#F4F4F6"/>
<rect x="35" y="10" width="5" height="5" fill="#F4F4F6"/>
<rect x="20" width="5" height="5" fill="white"/>
<rect x="20" y="5" width="5" height="5" fill="#F4F4F6"/>
<rect x="20" y="10" width="5" height="5" fill="white"/>
<rect x="25" y="15" width="5" height="5" fill="white"/>
<rect x="20" y="15" width="5" height="5" fill="#F4F4F6"/>
<rect x="25" y="5" width="5" height="5" fill="white"/>
<rect x="45" width="5" height="5" fill="#F4F4F6"/>
<rect x="50" width="5" height="5" fill="white"/>
<rect x="50" y="5" width="5" height="5" fill="#F4F4F6"/>
<rect x="55" y="5" width="5" height="5" fill="white"/>
<rect x="45" y="10" width="5" height="5" fill="#F4F4F6"/>
<rect x="50" y="10" width="5" height="5" fill="white"/>
<rect x="50" y="15" width="5" height="5" fill="#F4F4F6"/>
<rect x="55" y="15" width="5" height="5" fill="white"/>
<rect x="55" width="5" height="5" fill="#F4F4F6"/>
<rect x="55" y="10" width="5" height="5" fill="#F4F4F6"/>
<rect x="40" width="5" height="5" fill="white"/>
<rect x="40" y="5" width="5" height="5" fill="#F4F4F6"/>
<rect x="40" y="10" width="5" height="5" fill="white"/>
<rect x="45" y="15" width="5" height="5" fill="white"/>
<rect x="40" y="15" width="5" height="5" fill="#F4F4F6"/>
<rect x="45" y="5" width="5" height="5" fill="white"/>
<rect x="65" width="5" height="5" fill="#F4F4F6"/>
<rect x="70" width="5" height="5" fill="white"/>
<rect x="70" y="5" width="5" height="5" fill="#F4F4F6"/>
<rect x="75" y="5" width="5" height="5" fill="white"/>
<rect x="65" y="10" width="5" height="5" fill="#F4F4F6"/>
<rect x="70" y="10" width="5" height="5" fill="white"/>
<rect x="70" y="15" width="5" height="5" fill="#F4F4F6"/>
<rect x="75" y="15" width="5" height="5" fill="white"/>
<rect x="75" width="5" height="5" fill="#F4F4F6"/>
<rect x="75" y="10" width="5" height="5" fill="#F4F4F6"/>
<rect x="60" width="5" height="5" fill="white"/>
<rect x="60" y="5" width="5" height="5" fill="#F4F4F6"/>
<rect x="60" y="10" width="5" height="5" fill="white"/>
<rect x="65" y="15" width="5" height="5" fill="white"/>
<rect x="60" y="15" width="5" height="5" fill="#F4F4F6"/>
<rect x="65" y="5" width="5" height="5" fill="white"/>
<rect x="85" width="5" height="5" fill="#F4F4F6"/>
<rect x="90" width="5" height="5" fill="white"/>
<rect x="90" y="5" width="5" height="5" fill="#F4F4F6"/>
<rect x="95" y="5" width="5" height="5" fill="white"/>
<rect x="85" y="10" width="5" height="5" fill="#F4F4F6"/>
<rect x="90" y="10" width="5" height="5" fill="white"/>
<rect x="90" y="15" width="5" height="5" fill="#F4F4F6"/>
<rect x="95" y="15" width="5" height="5" fill="white"/>
<rect x="95" width="5" height="5" fill="#F4F4F6"/>
<rect x="95" y="10" width="5" height="5" fill="#F4F4F6"/>
<rect x="80" width="5" height="5" fill="white"/>
<rect x="80" y="5" width="5" height="5" fill="#F4F4F6"/>
<rect x="80" y="10" width="5" height="5" fill="white"/>
<rect x="85" y="15" width="5" height="5" fill="white"/>
<rect x="80" y="15" width="5" height="5" fill="#F4F4F6"/>
<rect x="85" y="5" width="5" height="5" fill="white"/>
<rect x="105" width="5" height="5" fill="#F4F4F6"/>
<rect x="110" width="5" height="5" fill="white"/>
<rect x="110" y="5" width="5" height="5" fill="#F4F4F6"/>
<rect x="115" y="5" width="5" height="5" fill="white"/>
<rect x="105" y="10" width="5" height="5" fill="#F4F4F6"/>
<rect x="110" y="10" width="5" height="5" fill="white"/>
<rect x="110" y="15" width="5" height="5" fill="#F4F4F6"/>
<rect x="115" y="15" width="5" height="5" fill="white"/>
<rect x="115" width="5" height="5" fill="#F4F4F6"/>
<rect x="115" y="10" width="5" height="5" fill="#F4F4F6"/>
<rect x="100" width="5" height="5" fill="white"/>
<rect x="100" y="5" width="5" height="5" fill="#F4F4F6"/>
<rect x="100" y="10" width="5" height="5" fill="white"/>
<rect x="105" y="15" width="5" height="5" fill="white"/>
<rect x="100" y="15" width="5" height="5" fill="#F4F4F6"/>
<rect x="105" y="5" width="5" height="5" fill="white"/>
<rect x="125" width="5" height="5" fill="#F4F4F6"/>
<rect x="130" width="5" height="5" fill="white"/>
<rect x="130" y="5" width="5" height="5" fill="#F4F4F6"/>
<rect x="135" y="5" width="5" height="5" fill="white"/>
<rect x="125" y="10" width="5" height="5" fill="#F4F4F6"/>
<rect x="130" y="10" width="5" height="5" fill="white"/>
<rect x="130" y="15" width="5" height="5" fill="#F4F4F6"/>
<rect x="135" y="15" width="5" height="5" fill="white"/>
<rect x="135" width="5" height="5" fill="#F4F4F6"/>
<rect x="135" y="10" width="5" height="5" fill="#F4F4F6"/>
<rect x="120" width="5" height="5" fill="white"/>
<rect x="120" y="5" width="5" height="5" fill="#F4F4F6"/>
<rect x="120" y="10" width="5" height="5" fill="white"/>
<rect x="125" y="15" width="5" height="5" fill="white"/>
<rect x="120" y="15" width="5" height="5" fill="#F4F4F6"/>
<rect x="125" y="5" width="5" height="5" fill="white"/>
<rect x="145" width="5" height="5" fill="#F4F4F6"/>
<rect x="150" width="5" height="5" fill="white"/>
<rect x="150" y="5" width="5" height="5" fill="#F4F4F6"/>
<rect x="155" y="5" width="5" height="5" fill="white"/>
<rect x="145" y="10" width="5" height="5" fill="#F4F4F6"/>
<rect x="150" y="10" width="5" height="5" fill="white"/>
<rect x="150" y="15" width="5" height="5" fill="#F4F4F6"/>
<rect x="155" y="15" width="5" height="5" fill="white"/>
<rect x="155" width="5" height="5" fill="#F4F4F6"/>
<rect x="155" y="10" width="5" height="5" fill="#F4F4F6"/>
<rect x="140" width="5" height="5" fill="white"/>
<rect x="140" y="5" width="5" height="5" fill="#F4F4F6"/>
<rect x="140" y="10" width="5" height="5" fill="white"/>
<rect x="145" y="15" width="5" height="5" fill="white"/>
<rect x="140" y="15" width="5" height="5" fill="#F4F4F6"/>
<rect x="145" y="5" width="5" height="5" fill="white"/>
<rect x="165" width="5" height="5" fill="#F4F4F6"/>
<rect x="170" width="5" height="5" fill="white"/>
<rect x="170" y="5" width="5" height="5" fill="#F4F4F6"/>
<rect x="175" y="5" width="5" height="5" fill="white"/>
<rect x="165" y="10" width="5" height="5" fill="#F4F4F6"/>
<rect x="170" y="10" width="5" height="5" fill="white"/>
<rect x="170" y="15" width="5" height="5" fill="#F4F4F6"/>
<rect x="175" y="15" width="5" height="5" fill="white"/>
<rect x="175" width="5" height="5" fill="#F4F4F6"/>
<rect x="175" y="10" width="5" height="5" fill="#F4F4F6"/>
<rect x="160" width="5" height="5" fill="white"/>
<rect x="160" y="5" width="5" height="5" fill="#F4F4F6"/>
<rect x="160" y="10" width="5" height="5" fill="white"/>
<rect x="165" y="15" width="5" height="5" fill="white"/>
<rect x="160" y="15" width="5" height="5" fill="#F4F4F6"/>
<rect x="165" y="5" width="5" height="5" fill="white"/>
<rect x="185" width="5" height="5" fill="#F4F4F6"/>
<rect x="190" width="5" height="5" fill="white"/>
<rect x="190" y="5" width="5" height="5" fill="#F4F4F6"/>
<rect x="195" y="5" width="5" height="5" fill="white"/>
<rect x="185" y="10" width="5" height="5" fill="#F4F4F6"/>
<rect x="190" y="10" width="5" height="5" fill="white"/>
<rect x="190" y="15" width="5" height="5" fill="#F4F4F6"/>
<rect x="195" y="15" width="5" height="5" fill="white"/>
<rect x="195" width="5" height="5" fill="#F4F4F6"/>
<rect x="195" y="10" width="5" height="5" fill="#F4F4F6"/>
<rect x="180" width="5" height="5" fill="white"/>
<rect x="180" y="5" width="5" height="5" fill="#F4F4F6"/>
<rect x="180" y="10" width="5" height="5" fill="white"/>
<rect x="185" y="15" width="5" height="5" fill="white"/>
<rect x="180" y="15" width="5" height="5" fill="#F4F4F6"/>
<rect x="185" y="5" width="5" height="5" fill="white"/>
<rect x="205" width="5" height="5" fill="#F4F4F6"/>
<rect x="210" width="5" height="5" fill="white"/>
<rect x="210" y="5" width="5" height="5" fill="#F4F4F6"/>
<rect x="215" y="5" width="5" height="5" fill="white"/>
<rect x="205" y="10" width="5" height="5" fill="#F4F4F6"/>
<rect x="210" y="10" width="5" height="5" fill="white"/>
<rect x="210" y="15" width="5" height="5" fill="#F4F4F6"/>
<rect x="215" y="15" width="5" height="5" fill="white"/>
<rect x="215" width="5" height="5" fill="#F4F4F6"/>
<rect x="215" y="10" width="5" height="5" fill="#F4F4F6"/>
<rect x="200" width="5" height="5" fill="white"/>
<rect x="200" y="5" width="5" height="5" fill="#F4F4F6"/>
<rect x="200" y="10" width="5" height="5" fill="white"/>
<rect x="205" y="15" width="5" height="5" fill="white"/>
<rect x="200" y="15" width="5" height="5" fill="#F4F4F6"/>
<rect x="205" y="5" width="5" height="5" fill="white"/>
<rect x="225" width="5" height="5" fill="#F4F4F6"/>
<rect x="230" width="5" height="5" fill="white"/>
<rect x="230" y="5" width="5" height="5" fill="#F4F4F6"/>
<rect x="235" y="5" width="5" height="5" fill="white"/>
<rect x="225" y="10" width="5" height="5" fill="#F4F4F6"/>
<rect x="230" y="10" width="5" height="5" fill="white"/>
<rect x="230" y="15" width="5" height="5" fill="#F4F4F6"/>
<rect x="235" y="15" width="5" height="5" fill="white"/>
<rect x="235" width="5" height="5" fill="#F4F4F6"/>
<rect x="235" y="10" width="5" height="5" fill="#F4F4F6"/>
<rect x="220" width="5" height="5" fill="white"/>
<rect x="220" y="5" width="5" height="5" fill="#F4F4F6"/>
<rect x="220" y="10" width="5" height="5" fill="white"/>
<rect x="225" y="15" width="5" height="5" fill="white"/>
<rect x="220" y="15" width="5" height="5" fill="#F4F4F6"/>
<rect x="225" y="5" width="5" height="5" fill="white"/>
<rect x="245" width="5" height="5" fill="#F4F4F6"/>
<rect x="250" width="5" height="5" fill="white"/>
<rect x="250" y="5" width="5" height="5" fill="#F4F4F6"/>
<rect x="255" y="5" width="5" height="5" fill="white"/>
<rect x="245" y="10" width="5" height="5" fill="#F4F4F6"/>
<rect x="250" y="10" width="5" height="5" fill="white"/>
<rect x="250" y="15" width="5" height="5" fill="#F4F4F6"/>
<rect x="255" y="15" width="5" height="5" fill="white"/>
<rect x="255" width="5" height="5" fill="#F4F4F6"/>
<rect x="255" y="10" width="5" height="5" fill="#F4F4F6"/>
<rect x="240" width="5" height="5" fill="white"/>
<rect x="240" y="5" width="5" height="5" fill="#F4F4F6"/>
<rect x="240" y="10" width="5" height="5" fill="white"/>
<rect x="245" y="15" width="5" height="5" fill="white"/>
<rect x="240" y="15" width="5" height="5" fill="#F4F4F6"/>
<rect x="245" y="5" width="5" height="5" fill="white"/>
<rect x="265" width="5" height="5" fill="#F4F4F6"/>
<rect x="270" width="5" height="5" fill="white"/>
<rect x="270" y="5" width="5" height="5" fill="#F4F4F6"/>
<rect x="275" y="5" width="5" height="5" fill="white"/>
<rect x="265" y="10" width="5" height="5" fill="#F4F4F6"/>
<rect x="270" y="10" width="5" height="5" fill="white"/>
<rect x="270" y="15" width="5" height="5" fill="#F4F4F6"/>
<rect x="275" y="15" width="5" height="5" fill="white"/>
<rect x="275" width="5" height="5" fill="#F4F4F6"/>
<rect x="275" y="10" width="5" height="5" fill="#F4F4F6"/>
<rect x="260" width="5" height="5" fill="white"/>
<rect x="260" y="5" width="5" height="5" fill="#F4F4F6"/>
<rect x="260" y="10" width="5" height="5" fill="white"/>
<rect x="265" y="15" width="5" height="5" fill="white"/>
<rect x="260" y="15" width="5" height="5" fill="#F4F4F6"/>
<rect x="265" y="5" width="5" height="5" fill="white"/>
<rect x="285" width="5" height="5" fill="#F4F4F6"/>
<rect x="290" width="5" height="5" fill="white"/>
<rect x="290" y="5" width="5" height="5" fill="#F4F4F6"/>
<rect x="285" y="10" width="5" height="5" fill="#F4F4F6"/>
<rect x="290" y="10" width="5" height="5" fill="white"/>
<rect x="290" y="15" width="5" height="5" fill="#F4F4F6"/>
<rect x="280" width="5" height="5" fill="white"/>
<rect x="280" y="5" width="5" height="5" fill="#F4F4F6"/>
<rect x="280" y="10" width="5" height="5" fill="white"/>
<rect x="285" y="15" width="5" height="5" fill="white"/>
<rect x="280" y="15" width="5" height="5" fill="#F4F4F6"/>
<rect x="285" y="5" width="5" height="5" fill="white"/>
</svg>
