<svg width="30" height="30" viewBox="0 0 30 30" fill="none" xmlns="http://www.w3.org/2000/svg">
    <path d="M24.8828 7.7876C24.8438 7.67041 24.7656 7.55322 24.6875 7.43604C24.4531 7.08447 24.0234 6.8501 23.5938 6.8501H19.5312C19.0234 6.8501 18.5938 7.12354 18.3594 7.4751C18.3203 7.55322 18.2812 7.59229 18.2422 7.67041C18.1641 7.82666 18.125 8.06104 18.125 8.25635V14.9751C18.125 17.4751 16.5625 18.7251 15 18.7251C13.4375 18.7251 11.875 17.4751 11.875 14.9751V8.25635C11.875 8.1001 11.8359 7.94385 11.7578 7.7876C11.7188 7.67041 11.6406 7.55322 11.5625 7.43604C11.3281 7.08447 10.8984 6.8501 10.4688 6.8501H6.40625C5.9375 6.8501 5.50781 7.08447 5.27344 7.43604C5.19531 7.55322 5.11719 7.67041 5.07812 7.7876C5 7.94385 5 8.1001 5 8.25635V15.6782C5 21.5376 10.3125 25.2876 15 25.2876C19.7266 25.2876 25 21.5376 25 15.6782V8.25635C25 8.1001 24.9609 7.94385 24.8828 7.7876ZM23.125 15.6782C23.125 16.811 22.8516 17.8657 22.3828 18.8423C21.9531 19.7407 21.3281 20.561 20.5078 21.3032C19.7656 21.9673 18.8672 22.5142 17.8906 22.8657C16.9531 23.2563 15.9375 23.4126 15 23.4126C13.0859 23.4126 11.0156 22.6313 9.45312 21.2642C8.63281 20.561 8.00781 19.7407 7.57812 18.8423C7.10938 17.8657 6.875 16.811 6.875 15.6782V8.4751H10V14.9751C10 17.0845 10.7812 18.3735 11.4844 19.0767C11.9141 19.5845 12.5 19.9751 13.0859 20.2485C13.7109 20.4829 14.3359 20.6001 15 20.6001C15.625 20.6001 16.25 20.4829 16.875 20.2485C17.5 19.9751 18.0469 19.5845 18.5156 19.0767C19.1797 18.3735 20 17.0845 20 15.0142V8.51416H23.125V15.6782Z" fill="currentColor"/>
    <path d="M6 12.6001H11" stroke="currentColor" stroke-width="2"/>
    <path d="M19 12.6001H24" stroke="currentColor" stroke-width="2"/>
</svg>
