<svg width="30" height="30" viewBox="0 0 30 30" fill="none" xmlns="http://www.w3.org/2000/svg">
    <path d="M11 7.85C11.4694 7.85 11.85 7.46944 11.85 7C11.85 6.53056 11.4694 6.15 11 6.15V7.85ZM7 7V6.15C6.53056 6.15 6.15 6.53056 6.15 7H7ZM6.15 11C6.15 11.4694 6.53056 11.85 7 11.85C7.46944 11.85 7.85 11.4694 7.85 11H6.15ZM11 6.15H7V7.85H11V6.15ZM6.15 7V11H7.85V7H6.15Z" fill="currentColor"/>
    <path d="M19 7.85C18.5306 7.85 18.15 7.46944 18.15 7C18.15 6.53056 18.5306 6.15 19 6.15V7.85ZM23 7V6.15C23.4694 6.15 23.85 6.53056 23.85 7H23ZM23.85 11C23.85 11.4694 23.4694 11.85 23 11.85C22.5306 11.85 22.15 11.4694 22.15 11H23.85ZM19 6.15H23V7.85H19V6.15ZM23.85 7V11H22.15V7H23.85Z" fill="currentColor"/>
    <path d="M11 22.15C11.4694 22.15 11.85 22.5306 11.85 23C11.85 23.4694 11.4694 23.85 11 23.85V22.15ZM7 23V23.85C6.53056 23.85 6.15 23.4694 6.15 23H7ZM6.15 19C6.15 18.5306 6.53056 18.15 7 18.15C7.46944 18.15 7.85 18.5306 7.85 19H6.15ZM11 23.85H7V22.15H11V23.85ZM6.15 23V19H7.85V23H6.15Z" fill="currentColor"/>
    <path d="M19 22.15C18.5306 22.15 18.15 22.5306 18.15 23C18.15 23.4694 18.5306 23.85 19 23.85V22.15ZM23 23V23.85C23.4694 23.85 23.85 23.4694 23.85 23H23ZM23.85 19C23.85 18.5306 23.4694 18.15 23 18.15C22.5306 18.15 22.15 18.5306 22.15 19H23.85ZM19 23.85H23V22.15H19V23.85ZM23.85 23V19H22.15V23H23.85Z" fill="currentColor"/>
    <path d="M15 11V19" stroke="currentColor" stroke-width="1.7" stroke-linecap="round" stroke-linejoin="round"/>
    <path d="M11 15H19" stroke="currentColor" stroke-width="1.7" stroke-linecap="round" stroke-linejoin="round"/>
</svg>
