<svg width="30" height="30" viewBox="0 0 30 30" fill="none" xmlns="http://www.w3.org/2000/svg">
    <path d="M16.312 7.51222C16.232 6.9321 15.7362 6.5 15.1507 6.5H14.8493C14.2638 6.5 13.768 6.9321 13.688 7.51222L13.5858 8.25289C13.5206 8.72542 13.1714 9.10155 12.7281 9.27771C12.6622 9.3039 12.5968 9.33119 12.532 9.35958C12.095 9.55109 11.5817 9.53468 11.1999 9.24836L10.8393 8.97791C10.3726 8.62784 9.71941 8.67425 9.30685 9.08681L9.08683 9.30685C8.67426 9.71941 8.62784 10.3726 8.97791 10.8393L9.24836 11.1999C9.53469 11.5817 9.55109 12.0949 9.35958 12.532C9.33119 12.5968 9.3039 12.6622 9.27771 12.7281C9.10155 13.1714 8.72542 13.5206 8.25289 13.5858L7.51222 13.688C6.9321 13.768 6.5 14.2637 6.5 14.8493V15.1507C6.5 15.7362 6.9321 16.232 7.51222 16.312L8.25289 16.4142C8.72542 16.4794 9.10155 16.8286 9.27771 17.2719C9.3039 17.3378 9.33119 17.4032 9.35958 17.4679C9.55109 17.905 9.53468 18.4183 9.24836 18.8L8.97791 19.1607C8.62784 19.6274 8.67425 20.2806 9.08681 20.6931L9.30685 20.9132C9.71941 21.3258 10.3726 21.3722 10.8393 21.0221L11.1999 20.7516C11.5817 20.4653 12.0949 20.4489 12.532 20.6405C12.5968 20.6689 12.6622 20.6961 12.7281 20.7223C13.1714 20.8984 13.5206 21.2746 13.5858 21.7471L13.688 22.4877C13.768 23.0678 14.2638 23.5 14.8493 23.5H15.1507C15.7362 23.5 16.232 23.0678 16.312 22.4877L16.4142 21.7471C16.4794 21.2746 16.8286 20.8984 17.2719 20.7223C17.3378 20.6961 17.4032 20.6689 17.4679 20.6404C17.905 20.4489 18.4183 20.4653 18.8 20.7516L19.1607 21.0221C19.6274 21.3722 20.2806 21.3258 20.6931 20.9132L20.9132 20.6931C21.3258 20.2806 21.3722 19.6274 21.0221 19.1607L20.7516 18.8C20.4653 18.4183 20.4489 17.905 20.6405 17.4679C20.6689 17.4032 20.6961 17.3378 20.7223 17.2719C20.8984 16.8286 21.2746 16.4794 21.7471 16.4142L22.4877 16.312C23.0678 16.232 23.5 15.7362 23.5 15.1507V14.8493C23.5 14.2638 23.0678 13.768 22.4877 13.688L21.7471 13.5858C21.2746 13.5206 20.8984 13.1714 20.7223 12.7281C20.6961 12.6622 20.6689 12.5968 20.6404 12.532C20.4489 12.0949 20.4653 11.5817 20.7516 11.1999L21.0221 10.8393C21.3722 10.3726 21.3258 9.71944 20.9132 9.30688L20.6931 9.08684C20.2806 8.67428 19.6274 8.62786 19.1607 8.97793L18.8 9.24836C18.4183 9.53469 17.905 9.55109 17.4679 9.35958C17.4032 9.33119 17.3378 9.3039 17.2719 9.27771C16.8286 9.10155 16.4794 8.72542 16.4142 8.25289L16.312 7.51222Z" stroke="currentColor" stroke-width="1.6" stroke-linecap="round" stroke-linejoin="round"/>
    <path d="M17.5 15C17.5 16.3808 16.3808 17.5 15 17.5C13.6192 17.5 12.5 16.3808 12.5 15C12.5 13.6192 13.6192 12.5 15 12.5C16.3808 12.5 17.5 13.6192 17.5 15Z" stroke="currentColor" stroke-width="1.5" stroke-linecap="round" stroke-linejoin="round"/>
</svg>
