<svg width="30" height="30" viewBox="0 0 30 30" fill="none" xmlns="http://www.w3.org/2000/svg">
    <path d="M16.5469 20.375H17.3906C17.6016 20.375 17.8125 20.1992 17.8125 19.9531V12.3594C17.8125 12.1484 17.6016 11.9375 17.3906 11.9375H16.5469C16.3008 11.9375 16.125 12.1484 16.125 12.3594V19.9531C16.125 20.1992 16.3008 20.375 16.5469 20.375ZM22.3125 8.5625H19.3945L18.1992 6.59375C17.918 6.10156 17.3555 5.75 16.7578 5.75H13.207C12.6094 5.75 12.0469 6.10156 11.7656 6.59375L10.5703 8.5625H7.6875C7.37109 8.5625 7.125 8.84375 7.125 9.125V9.6875C7.125 10.0039 7.37109 10.25 7.6875 10.25H8.25V22.0625C8.25 23.0117 8.98828 23.75 9.9375 23.75H20.0625C20.9766 23.75 21.75 23.0117 21.75 22.0625V10.25H22.3125C22.5938 10.25 22.875 10.0039 22.875 9.6875V9.125C22.875 8.84375 22.5938 8.5625 22.3125 8.5625ZM13.1367 7.54297C13.1719 7.50781 13.2422 7.4375 13.3125 7.4375C13.3125 7.4375 13.3125 7.4375 13.3477 7.4375H16.6523C16.7227 7.4375 16.793 7.50781 16.8281 7.54297L17.4258 8.5625H12.5391L13.1367 7.54297ZM20.0625 22.0625H9.9375V10.25H20.0625V22.0625ZM12.6094 20.375H13.4531C13.6641 20.375 13.875 20.1992 13.875 19.9531V12.3594C13.875 12.1484 13.6641 11.9375 13.4531 11.9375H12.6094C12.3633 11.9375 12.1875 12.1484 12.1875 12.3594V19.9531C12.1875 20.1992 12.3633 20.375 12.6094 20.375Z" fill="currentColor"/>
</svg>
