<svg width="30" height="30" viewBox="0 0 30 30" fill="none" xmlns="http://www.w3.org/2000/svg">
    <path fill-rule="evenodd" clip-rule="evenodd" d="M15 5.6C15.497 5.6 15.9 6.00294 15.9 6.5V15.346L18.1508 12.9221C18.489 12.5578 19.0585 12.5367 19.4227 12.875C19.787 13.2132 19.808 13.7826 19.4698 14.1469L15.6633 18.2463C15.4987 18.4255 15.2625 18.5379 15 18.5379C14.7729 18.5379 14.5655 18.4539 14.4072 18.3151C14.3839 18.2948 14.3617 18.2732 14.3404 18.2503L10.5301 14.1469C10.1919 13.7826 10.213 13.2132 10.5772 12.875C10.9414 12.5367 11.5109 12.5578 11.8491 12.9221L14.1 15.3461V6.5C14.1 6.00294 14.5029 5.6 15 5.6ZM6.49998 17.3241C6.99703 17.3241 7.39998 17.7271 7.39998 18.2241V19.9828C7.39998 21.4283 8.57175 22.6 10.0172 22.6H19.9827C21.4283 22.6 22.6 21.4283 22.6 19.9828V18.2241C22.6 17.7271 23.0029 17.3241 23.5 17.3241C23.997 17.3241 24.4 17.7271 24.4 18.2241V19.9828C24.4 22.4224 22.4224 24.4 19.9827 24.4H10.0172C7.57766 24.4 5.59998 22.4224 5.59998 19.9828V18.2241C5.59998 17.7271 6.00292 17.3241 6.49998 17.3241Z" fill="currentColor"/>
</svg>
