<svg width="30" height="30" viewBox="0 0 30 30" fill="none" xmlns="http://www.w3.org/2000/svg">
    <path d="M12.5123 21.8885C12.6797 21.8491 12.8329 21.7638 12.9545 21.6421L22.3577 12.239C22.4279 12.1688 22.4863 12.0878 22.5307 11.999C23.9032 9.25788 21.1979 6.25745 18.3298 7.33981L18.0885 7.43089C17.9655 7.47728 17.8539 7.54933 17.761 7.64224L8.3578 17.0454C8.23616 17.1671 8.15086 17.3202 8.11146 17.4876L7.09959 21.7881C7.02622 22.0999 7.11941 22.4275 7.34593 22.654C7.57244 22.8805 7.90003 22.9737 8.21186 22.9004L12.5123 21.8885Z" stroke="currentColor" stroke-width="1.85" stroke-linecap="round" stroke-linejoin="round"/>
    <path d="M15 10.4999L19 14.4999" stroke="currentColor" stroke-width="1.85"/>
</svg>
