<svg width="30" height="30" viewBox="0 0 30 30" fill="none" xmlns="http://www.w3.org/2000/svg">
    <path d="M15 18.4741C16.9187 18.4741 18.4741 16.9187 18.4741 15C18.4741 13.0813 16.9187 11.5259 15 11.5259C13.0812 11.5259 11.5258 13.0813 11.5258 15C11.5258 16.9187 13.0812 18.4741 15 18.4741Z" stroke="currentColor" stroke-width="1.7" stroke-linecap="round" stroke-linejoin="round"/>
    <path d="M15 22.75C10.7198 22.75 7.25 19.2802 7.25 15C7.25 10.7198 10.7198 7.25 15 7.25C22.2823 7.25 22.75 11.9267 22.75 15V16.3362C22.75 17.517 21.7928 18.4741 20.6121 18.4741C19.4313 18.4741 18.4741 17.517 18.4741 16.3362V11.5259" stroke="currentColor" stroke-width="1.7" stroke-linecap="round" stroke-linejoin="round"/>
</svg>
