<svg width="30" height="30" viewBox="0 0 30 30" fill="none" xmlns="http://www.w3.org/2000/svg">
    <path d="M23.5273 15.625H21.875V12.9375C21.875 12.0234 21.1016 11.25 20.1875 11.25H14.5625L12.3125 8H6.6875C5.73828 8 5 8.77344 5 9.6875V20.8125C5 21.7617 5.73828 22.5 6.6875 22.5H20.75C21.3125 22.5 21.8398 22.2188 22.1562 21.7266L24.9688 18.2266C25.6719 17.1016 24.8633 15.625 23.5273 15.625ZM6.6875 9.89844C6.6875 9.79297 6.75781 9.6875 6.89844 9.6875H11.6094L13.8594 12.9375H19.9766C20.082 12.9375 20.1875 13.043 20.1875 13.1484V15.625H10.3438C9.74609 15.625 9.18359 15.9414 8.86719 16.4688L6.6875 19.125V9.89844ZM20.75 20.8125H7.53125L10.2383 17.3125H23.5625L20.75 20.8125Z" fill="currentColor" stroke="currentColor" stroke-width="0.2"/>
</svg>
