<svg width="30" height="30" viewBox="0 0 30 30" fill="none" xmlns="http://www.w3.org/2000/svg">
    <path fill-rule="evenodd" clip-rule="evenodd" d="M7.90952 6C7.40873 6 7 6.40873 7 6.90952C7 7.41031 7.40873 7.81904 7.90952 7.81904H9.17965V10.1742C9.17965 12.1976 10.232 13.9788 11.8211 15.0003C10.236 16.0218 9.17965 17.8029 9.17965 19.8304V22.181H7.90952C7.40873 22.181 7 22.5897 7 23.0905C7 23.5913 7.40873 24 7.90952 24H21.7823C22.2831 24 22.6918 23.5913 22.6918 23.0905C22.6918 22.5897 22.283 22.181 21.7822 22.181H20.6596V19.8258C20.6596 17.8026 19.6074 16.0215 18.0186 15C19.6073 13.9784 20.6596 12.1974 20.6596 10.1742V7.81904H21.7869C22.2877 7.81904 22.6964 7.4103 22.6964 6.90952C22.6964 6.40873 22.2877 6 21.7869 6H7.90952ZM10.9986 10.1745V7.81928H18.8406V10.1745C18.8406 12.3338 17.0841 14.0906 14.9196 14.0906C12.7597 14.0906 10.9986 12.3336 10.9986 10.1745ZM10.9986 19.8258C10.9986 17.6666 12.7549 15.9097 14.9242 15.9097C17.0838 15.9097 18.8404 17.6663 18.8404 19.8258L18.8406 22.181H10.9986V19.8258Z" fill="currentColor"/>
</svg>
