<svg width="30" height="30" viewBox="0 0 30 30" fill="none" xmlns="http://www.w3.org/2000/svg">
    <path d="M13 7.12H10.0938C9.00391 7.12 8.125 8.03406 8.125 9.08875V11.8309C8.125 12.2177 7.94922 12.5692 7.70312 12.8153L6.12109 14.3973C5.94531 14.5731 5.83984 14.7841 5.83984 14.995C5.83984 15.2411 5.94531 15.452 6.12109 15.5927L7.70312 17.2098C7.94922 17.4559 8.08984 17.8075 8.125 18.1942V20.9012C8.125 21.9911 9.00391 22.87 10.0938 22.87H13C13.2812 22.87 13.5625 22.6239 13.5625 22.3075V21.745C13.5625 21.4637 13.2812 21.1825 13 21.1825H10.0938C9.91797 21.1825 9.8125 21.077 9.8125 20.9012V18.1942C9.77734 17.3505 9.46094 16.577 8.89844 16.0145L7.87891 14.995L8.89844 14.0106C9.46094 13.4481 9.77734 12.6747 9.8125 11.8309V9.08875C9.8125 8.94812 9.91797 8.8075 10.0938 8.8075H13C13.2812 8.8075 13.5625 8.5614 13.5625 8.245V7.6825C13.5625 7.40125 13.2812 7.12 13 7.12ZM23.8789 14.3973L22.2617 12.8153C22.0156 12.5692 21.875 12.2177 21.875 11.8309V9.08875C21.875 8.03406 20.9609 7.12 19.9062 7.12H17C16.6836 7.12 16.4375 7.40125 16.4375 7.6825V8.245C16.4375 8.5614 16.6836 8.8075 17 8.8075H19.9062C20.0469 8.8075 20.1875 8.94812 20.1875 9.08875V11.8309C20.1875 12.6747 20.5039 13.4481 21.0664 14.0106L22.0859 14.995L21.0664 16.0145C20.5039 16.577 20.1875 17.3505 20.1875 18.1942V20.9012C20.1875 21.077 20.0469 21.1825 19.9062 21.1825H17C16.6836 21.1825 16.4375 21.4637 16.4375 21.745V22.3075C16.4375 22.6239 16.6836 22.87 17 22.87H19.9062C20.9609 22.87 21.875 21.9911 21.875 20.9012V18.1942C21.875 17.8075 22.0156 17.4559 22.2617 17.2098L23.8789 15.5927C24.0195 15.452 24.125 15.2411 24.125 15.0302C24.125 14.7841 24.0195 14.5731 23.8789 14.3973Z" fill="currentColor" stroke="currentColor" stroke-width="0.1"/>
</svg>
