<svg width="30" height="30" viewBox="0 0 30 30" fill="none" xmlns="http://www.w3.org/2000/svg">
    <path d="M5 20.5172L8.78785 15.6989C9.86193 14.3326 11.9166 14.2879 13.0491 15.6062L13.25 15.8401M16.3793 19.4828L13.25 15.8401M24.6552 15.3448L21.325 11.4682C20.1949 10.1528 18.1469 10.1945 17.0708 11.552L13.25 15.8401M7.75862 25H22.2414C23.765 25 25 23.765 25 22.2414V7.75862C25 6.23508 23.765 5 22.2414 5H7.75862C6.23508 5 5 6.23508 5 7.75862V22.2414C5 23.765 6.23508 25 7.75862 25Z" stroke="currentColor" stroke-width="1.9" stroke-linecap="round" stroke-linejoin="round"/>
</svg>
