<svg width="30" height="30" viewBox="0 0 30 30" fill="none" xmlns="http://www.w3.org/2000/svg">
    <path d="M19.2188 7.09375C19.2188 6.63672 18.832 6.25 18.375 6.25C17.8828 6.25 17.5312 6.63672 17.5312 7.09375V10.1875H19.2188V7.09375ZM12.4688 7.09375C12.4688 6.63672 12.082 6.25 11.625 6.25C11.1328 6.25 10.7812 6.63672 10.7812 7.09375V10.1875H12.4688V7.09375ZM21.1875 11.3125H8.8125C8.49609 11.3125 8.25 11.5938 8.25 11.875V12.4375C8.25 12.7539 8.49609 13 8.8125 13H9.375V15.25C9.375 18.0977 11.4492 20.3828 14.1562 20.8047V24.25H15.8438V20.8047C18.5156 20.3828 20.625 18.0977 20.625 15.25V13H21.1875C21.4688 13 21.75 12.7539 21.75 12.4375V11.875C21.75 11.5938 21.4688 11.3125 21.1875 11.3125ZM18.9375 15.25C18.9375 17.4297 17.1445 19.1875 15 19.1875C12.8203 19.1875 11.0625 17.4297 11.0625 15.25V13H18.9375V15.25Z" fill="currentColor"/>
</svg>
