<svg width="30" height="30" viewBox="0 0 30 30" fill="none" xmlns="http://www.w3.org/2000/svg">
    <path d="M15 9.1875C16.0547 9.1875 16.9688 8.30859 16.9688 7.21875C16.9688 6.16406 16.0547 5.25 15 5.25C13.9102 5.25 13.0312 6.16406 13.0312 7.21875C13.0312 8.30859 13.9102 9.1875 15 9.1875ZM23.7188 11.7539L22.7344 11.1914C22.6289 11.1211 22.5586 11.0859 22.418 11.0859C22.2422 11.0859 22.0664 11.1914 21.9609 11.332C21.6445 11.7539 21.1523 12.0352 20.5898 12.0352L20.625 12C20.4844 12 20.3789 12 20.2734 12C19.4648 11.8242 18.9375 11.0508 18.9375 10.2422C18.9375 9.99609 18.6914 9.75 18.4453 9.75H17.0742C16.8633 9.75 16.6875 9.89062 16.6172 10.1016C16.4766 10.875 15.8086 11.4375 14.9648 11.4375C14.1562 11.4375 13.4883 10.875 13.3477 10.1016C13.2773 9.89062 13.1016 9.75 12.8906 9.75H11.5195C11.2734 9.75 11.0625 9.99609 11.0625 10.2422C11.0625 11.1562 10.3945 11.9648 9.48047 12C9.44531 12 9.41016 12 9.375 12H9.33984C8.8125 12 8.32031 11.7539 8.00391 11.332C7.89844 11.1914 7.72266 11.0859 7.54688 11.0859C7.44141 11.0859 7.33594 11.1211 7.23047 11.1914L6.24609 11.7539C6.07031 11.8594 5.96484 12 5.96484 12.2109C5.96484 12.3164 6 12.3867 6.03516 12.457L9.83203 20.4375H11.7305L8.42578 13.582C8.74219 13.6523 9.02344 13.6875 9.375 13.6875C9.44531 13.6875 9.51562 13.6875 9.58594 13.6875C10.7812 13.6172 11.8008 12.8789 12.3281 11.8594C12.9609 12.6328 13.9102 13.1602 15 13.1602C16.0547 13.1602 17.0039 12.6328 17.6367 11.8594C18.0938 12.7734 18.9375 13.4414 19.9922 13.6523C20.168 13.6875 20.3789 13.6875 20.625 13.6875C20.9414 13.6875 21.2227 13.6523 21.5391 13.582L18.2695 20.4375H20.1328L23.9297 12.457C23.9648 12.3867 23.9648 12.3164 23.9648 12.2109C23.9648 12 23.8945 11.8594 23.7188 11.7539ZM21.1875 21.5625H8.8125C8.49609 21.5625 8.25 21.8438 8.25 22.125V22.6875C8.25 23.0039 8.49609 23.25 8.8125 23.25H21.1875C21.4688 23.25 21.75 23.0039 21.75 22.6875V22.125C21.75 21.8438 21.4688 21.5625 21.1875 21.5625Z" fill="currentColor"/>
</svg>
