<svg width="30" height="30" viewBox="0 0 30 30" fill="none" xmlns="http://www.w3.org/2000/svg">
    <path d="M23.809 21.7836L21.2515 19.2261C21.6881 18.6023 21.9376 17.8226 21.9376 17.0117C21.9376 14.7973 20.1598 13.0195 17.9454 13.0195C15.7622 13.0195 13.9532 14.7973 13.9532 17.0117C13.9532 19.1949 15.7622 21.0039 17.9454 21.0039C18.7875 21.0039 19.5673 20.7232 20.191 20.2866L22.7485 22.8441C22.8421 22.9376 22.9669 23 23.0916 23C23.2476 23 23.3723 22.9376 23.4659 22.8441L23.809 22.4698C23.9025 22.4074 23.9649 22.2827 23.9649 22.1267C23.9649 22.0019 23.9025 21.8772 23.809 21.7836ZM17.9766 19.4756C16.5731 19.4756 15.4815 18.384 15.4815 16.9805C15.4815 15.6082 16.5731 14.4854 17.9766 14.4854C19.3489 14.4854 20.4717 15.6082 20.4717 16.9805C20.4405 18.384 19.3489 19.4756 17.9766 19.4756ZM7.49708 21.4717V8.52827H12.4873V11.7719C12.4873 12.1774 12.7992 12.5205 13.2047 12.5205C13.2047 12.5205 13.2047 12.5205 13.2359 12.5205H15.8246C16.4795 12.2086 17.1969 12.0214 17.9766 12.0214V11.117C17.9454 10.7115 17.7895 10.3372 17.5088 10.0565L14.9201 7.46784C14.6394 7.18713 14.2651 7.03119 13.8596 7H7.49708C6.65497 7.03119 6 7.68616 6 8.52827V21.4717C6 22.3138 6.65497 22.9688 7.49708 22.9688H16.4795C17.1033 22.9688 17.6647 22.5634 17.883 21.9708C17.1345 21.9708 16.4483 21.7836 15.8246 21.4717H7.49708ZM13.9844 8.62183L16.3548 11.0234H13.9844V8.62183Z" fill="currentColor" stroke="currentColor" stroke-width="0.2"/>
</svg>
