<svg width="30" height="30" viewBox="0 0 30 30" fill="none" xmlns="http://www.w3.org/2000/svg">
    <path d="M15 7.375C10.0078 7.375 6.00003 10.6797 6.00003 14.6875C6.00003 16.375 6.668 17.9219 7.82815 19.1523C7.33597 20.5234 6.24612 21.7188 6.21097 21.7188C5.96487 21.9648 5.92972 22.3164 6.03519 22.6328C6.17581 22.9492 6.49222 23.125 6.84378 23.125C8.98831 23.125 10.711 22.2461 11.7305 21.5078C12.75 21.8242 13.8399 22 15 22C19.9571 22 24 18.7305 24 14.6875C24 10.6797 19.9571 7.375 15 7.375ZM15 20.3125C14.0508 20.3125 13.1016 20.1719 12.2227 19.8906L11.4141 19.6445L10.7461 20.1367C10.2539 20.4883 9.55081 20.875 8.70706 21.1562C8.98831 20.7344 9.2344 20.2422 9.41019 19.75L9.7969 18.7656L9.05862 17.9922C8.42581 17.3242 7.68753 16.1992 7.68753 14.6875C7.68753 11.5938 10.9571 9.0625 15 9.0625C19.0078 9.0625 22.3125 11.5938 22.3125 14.6875C22.3125 17.8164 19.0078 20.3125 15 20.3125Z" fill="currentColor"/>
</svg>
