<svg width="30" height="30" viewBox="0 0 30 30" fill="none" xmlns="http://www.w3.org/2000/svg">
    <path d="M22.5979 21.9215C22.3224 22.0034 22.0275 21.8747 21.9011 21.6172C20.4927 19.3474 18.333 18.2136 15.7985 17.6721C15.0752 17.5301 14.3441 17.4349 13.6091 17.3873C13.3594 17.367 13.2798 17.4271 13.2845 17.6893C13.3017 18.4859 13.2845 19.2795 13.2845 20.0761C13.2845 20.3882 13.2096 20.6457 12.8951 20.7627C12.5807 20.8798 12.3755 20.7128 12.1812 20.4959C10.5379 18.6646 8.89313 16.8341 7.2452 15.0028C6.91827 14.6407 6.91827 14.4035 7.2452 14.0391C8.8978 12.2078 10.552 10.3719 12.2062 8.53125C12.4036 8.30887 12.626 8.17154 12.9256 8.29872C13.1862 8.41108 13.3345 8.68807 13.2845 8.9682V10.1441C13.2845 10.5459 13.2993 10.9509 13.2845 11.355C13.2845 11.6047 13.3423 11.6625 13.592 11.6875C17.6828 12.0729 20.566 14.1406 22.2405 17.8891C22.7009 18.9627 22.9552 20.1129 22.9896 21.2802C23.045 21.5635 22.8749 21.8419 22.5979 21.9215Z" stroke="currentColor" stroke-width="1.8"/>
</svg>
