<svg width="30" height="30" viewBox="0 0 30 30" fill="none" xmlns="http://www.w3.org/2000/svg">
    <path d="M9.75 22.25H20.25C21.3546 22.25 22.25 21.3546 22.25 20.25V12.8284C22.25 12.298 22.0393 11.7893 21.6642 11.4142L18.5858 8.33579C18.2107 7.96071 17.702 7.75 17.1716 7.75H9.75C8.64543 7.75 7.75 8.64543 7.75 9.75V20.25C7.75 21.3546 8.64543 22.25 9.75 22.25Z" stroke="currentColor" stroke-width="1.7" stroke-linecap="round" stroke-linejoin="round"/>
    <path d="M11.75 22V18.75C11.75 18.1977 12.1977 17.75 12.75 17.75H17.25C17.8023 17.75 18.25 18.1977 18.25 18.75V22" stroke="currentColor" stroke-width="1.7" stroke-linecap="round" stroke-linejoin="round"/>
    <path d="M11.75 8V11.25" stroke="currentColor" stroke-width="1.7" stroke-linecap="round" stroke-linejoin="round"/>
</svg>
