<svg width="30" height="30" viewBox="0 0 30 30" fill="none" xmlns="http://www.w3.org/2000/svg">
    <path d="M7 10.4C7 9.07452 7.98806 8 9.2069 8H20.7931C22.012 8 23 9.07452 23 10.4V20.6C23 21.9255 22.012 23 20.7931 23H9.2069C7.98806 23 7 21.9255 7 20.6V10.4Z" stroke="currentColor" stroke-width="1.6" stroke-linecap="round" stroke-linejoin="round"/>
    <path d="M11 6.5V10" stroke="currentColor" stroke-width="1.6" stroke-linecap="round" stroke-linejoin="round"/>
    <path d="M19 6.5V10" stroke="currentColor" stroke-width="1.6" stroke-linecap="round" stroke-linejoin="round"/>
    <path d="M15.0874 19.4716C14.6897 19.4716 14.3085 19.4077 13.9439 19.2798C13.5793 19.1496 13.255 18.9437 12.9709 18.6619C12.6868 18.3778 12.4631 18.0062 12.2998 17.5469C12.1364 17.0852 12.0559 16.523 12.0583 15.8601C12.0606 15.2611 12.134 14.7237 12.2784 14.2479C12.4229 13.7696 12.6288 13.3636 12.8963 13.0298C13.1662 12.696 13.4882 12.4415 13.8623 12.2663C14.2387 12.0888 14.6589 12 15.1229 12C15.6319 12 16.0805 12.0994 16.4688 12.2983C16.8594 12.4948 17.1719 12.7599 17.4063 13.0937C17.6407 13.4252 17.7792 13.7945 17.8218 14.2017H16.0924C16.0403 13.9721 15.9255 13.7981 15.7479 13.6797C15.5727 13.5589 15.3644 13.4986 15.1229 13.4986C14.6778 13.4986 14.3452 13.6915 14.125 14.0774C13.9072 14.4633 13.796 14.9794 13.7912 15.6257H13.8374C13.9368 15.4079 14.0801 15.2209 14.2671 15.0646C14.4541 14.9084 14.6684 14.7888 14.9098 14.706C15.1537 14.6207 15.4117 14.5781 15.684 14.5781C16.1196 14.5781 16.5043 14.6787 16.8381 14.88C17.1719 15.0812 17.4335 15.357 17.6229 15.7074C17.8123 16.0554 17.9058 16.4543 17.9034 16.9041C17.9058 17.4107 17.7874 17.8582 17.5483 18.2464C17.3092 18.6323 16.9778 18.933 16.554 19.1484C16.1326 19.3639 15.6437 19.4716 15.0874 19.4716ZM15.0767 18.1222C15.2922 18.1222 15.4851 18.0713 15.6556 17.9695C15.826 17.8677 15.9598 17.7292 16.0569 17.554C16.1539 17.3788 16.2013 17.1811 16.1989 16.9609C16.2013 16.7384 16.1539 16.5407 16.0569 16.3679C15.9622 16.1951 15.8296 16.0578 15.6591 15.956C15.491 15.8542 15.2981 15.8033 15.0803 15.8033C14.9217 15.8033 14.7737 15.8329 14.6364 15.892C14.4991 15.9512 14.3795 16.0341 14.2777 16.1406C14.1783 16.2448 14.1002 16.3679 14.0434 16.5099C13.9865 16.6496 13.957 16.8011 13.9546 16.9645C13.957 17.1799 14.0067 17.3752 14.1037 17.5504C14.2008 17.7256 14.3334 17.8653 14.5015 17.9695C14.6695 18.0713 14.8613 18.1222 15.0767 18.1222Z" fill="currentColor"/>
</svg>
