<svg width="30" height="30" viewBox="0 0 30 30" fill="none" xmlns="http://www.w3.org/2000/svg">
    <path d="M23.6321 12.8242L17.7258 6.91797C17.6907 6.84766 17.6204 6.8125 17.55 6.8125C17.4797 6.8125 17.4094 6.84766 17.3391 6.91797L16.5657 7.69141C16.4602 7.79688 16.4602 7.97266 16.5657 8.07812L16.9524 8.46484L7.91724 17.5352C6.51099 18.9414 6.51099 21.2266 7.91724 22.6328C9.32349 24.0391 11.6086 24.0391 13.0149 22.6328L22.0852 13.5977L22.4719 13.9844C22.5071 14.0547 22.5774 14.0547 22.6477 14.0547C22.718 14.0547 22.7883 14.0547 22.8586 13.9844L23.6321 13.2109C23.7375 13.1055 23.7375 12.9297 23.6321 12.8242ZM11.8196 21.4375C11.0813 22.2109 9.85083 22.2109 9.11255 21.4375C8.33911 20.6992 8.33911 19.4688 9.11255 18.7305L10.8704 16.9375H16.3196L11.8196 21.4375ZM18.0071 15.25H12.5579L18.1477 9.69531L20.8547 12.4023L18.0071 15.25Z" fill="currentColor"/>
</svg>
