<svg width="30" height="30" viewBox="0 0 30 30" fill="none" xmlns="http://www.w3.org/2000/svg">
    <path fill-rule="evenodd" clip-rule="evenodd" d="M14.6011 7.10104C14.933 6.7691 14.933 6.23091 14.6011 5.89896C14.2691 5.56702 13.7309 5.56702 13.399 5.89896L10.399 8.89896C10.2396 9.05837 10.15 9.27457 10.15 9.5C10.15 9.72544 10.2396 9.94164 10.399 10.101L13.399 13.101C13.7309 13.433 14.2691 13.433 14.6011 13.101C14.933 12.7691 14.933 12.2309 14.6011 11.899L13.0349 10.3328H16.3793C19.5664 10.3328 22.15 12.9164 22.15 16.1034V16.3793C22.15 16.8488 22.5306 17.2293 23 17.2293C23.4694 17.2293 23.85 16.8488 23.85 16.3793V16.1034C23.85 11.9775 20.5052 8.63276 16.3793 8.63276H13.0693L14.6011 7.10104ZM16.6011 16.899C16.2691 16.567 15.7309 16.567 15.399 16.899C15.067 17.2309 15.067 17.7691 15.399 18.101L16.9652 19.6672H13.6207C10.4336 19.6672 7.85002 17.0836 7.85002 13.8966V13.6207C7.85002 13.1512 7.46947 12.7707 7.00002 12.7707C6.53058 12.7707 6.15002 13.1512 6.15002 13.6207V13.8966C6.15002 18.0225 9.49476 21.3672 13.6207 21.3672H16.9307L15.399 22.899C15.067 23.2309 15.067 23.7691 15.399 24.101C15.7309 24.433 16.2691 24.433 16.6011 24.101L19.6011 21.101C19.7605 20.9416 19.85 20.7254 19.85 20.5C19.85 20.2746 19.7605 20.0584 19.6011 19.899L16.6011 16.899Z" fill="currentColor"/>
</svg>
