<svg width="30" height="30" viewBox="0 0 30 30" fill="none" xmlns="http://www.w3.org/2000/svg">
    <path fill-rule="evenodd" clip-rule="evenodd" d="M15 6.5C15.4988 6.5 15.9032 6.90434 15.9032 7.40313V12.8196L19.7332 8.98959C20.0858 8.6369 20.6577 8.6369 21.0104 8.98959C21.3631 9.34228 21.3631 9.91411 21.0104 10.2668L17.1803 14.0969H22.5969C23.0957 14.0969 23.5 14.5012 23.5 15C23.5 15.4988 23.0957 15.9031 22.5969 15.9031H17.1803L21.0104 19.7332C21.3631 20.0859 21.3631 20.6577 21.0104 21.0104C20.6577 21.3631 20.0859 21.3631 19.7332 21.0104L15.9032 17.1804V22.5969C15.9032 23.0957 15.4988 23.5 15 23.5C14.5012 23.5 14.0969 23.0957 14.0969 22.5969V17.1803L10.2668 21.0104C9.91407 21.3631 9.34224 21.3631 8.98955 21.0104C8.63686 20.6577 8.63686 20.0859 8.98955 19.7332L12.8196 15.9031H7.40313C6.90434 15.9031 6.5 15.4988 6.5 15C6.5 14.5012 6.90434 14.0969 7.40313 14.0969H12.8196L8.98956 10.2668C8.63687 9.91411 8.63687 9.34228 8.98956 8.98959C9.34226 8.63689 9.91408 8.63689 10.2668 8.98959L14.0969 12.8197V7.40313C14.0969 6.90434 14.5012 6.5 15 6.5ZM16.615 13.5833C15.6445 13.134 14.5255 13.134 13.555 13.5833C13.1251 14.4789 13.1251 15.5211 13.555 16.4167C14.5255 16.866 15.6445 16.866 16.615 16.4167C16.9446 15.501 16.9446 14.499 16.615 13.5833Z" fill="currentColor"/>
</svg>
